# xmcd
#
# Track frame offsets:
#	150
#	18073
#	27607
#	41498
#	52926
#	65259
#	77987
#	94154
#	109843
#	124926
#	138715
#	148836
#	158853
#	170495
#	185270
#	199772
#	211050
#	228151
#	243335
#	258464
#	269739
#
# Disc length: 3728 seconds
#
# Revision: 1
# Processed by: cddbd v1.5.2PL0 Copyright (c) Steve Scherf et al.
# Submitted via: audiograbber 1.83.01
#
DISCID=2e0e8e15
DTITLE=Various Artist - Faith And Inspiration (Reader's Digest) [Disc 3]
DYEAR=2013
DGENRE=Country
TTITLE0=T. Graham Brown - Praise Him
TTITLE1=The Jordanaires - Go Where I Send Thee
TTITLE2=Donna Fargo - You Can't Be A Beacon (If Your Light Don't Shine)
TTITLE3=Mickey Gilley - When The Saints Go Marchin' In
TTITLE4=Brenda Lee - This Little Light Of Mine
TTITLE5=The Jordanaires - Down By The Riverside
TTITLE6=Marty Raybon - One Day At A Time
TTITLE7=Jack Greene - Why Me Lord
TTITLE8=The Gatlin Brothers - Amazing Grace
TTITLE9=Lee Greenwood - Rock Of Ages
TTITLE10=Pat Boone - Dust On The Bible
TTITLE11=David Houston - Church In The Wildwood
TTITLE12=Brenda Lee - Jesus Loves Me
TTITLE13=The Jordanaires - Peace In The Valley
TTITLE14=Slim Whitman - Beyond The Sunset
TTITLE15=Patsy Cline - Dear God
TTITLE16=Bill Anderson - Pass Me Not, O Gentle Saviour
TTITLE17=Carmon Alexander - It Is No Secret (What God Can Do)
TTITLE18=The Jordanaires - Swing Low, Sweet Chariot
TTITLE19=Pat Boone - Sweet Hour Of Prayer
TTITLE20=Frankie Laine - I Believe
EXTD=
EXTT0=
EXTT1=
EXTT2=
EXTT3=
EXTT4=
EXTT5=
EXTT6=
EXTT7=
EXTT8=
EXTT9=
EXTT10=
EXTT11=
EXTT12=
EXTT13=
EXTT14=
EXTT15=
EXTT16=
EXTT17=
EXTT18=
EXTT19=
EXTT20=
PLAYORDER=
